<svg viewBox="0 0 230 209" xmlns="http://www.w3.org/2000/svg" xmlns:xlink="http://www.w3.org/1999/xlink">
    <defs>
        <path id="a" d="M230 .88V132H0V.88z"/>
    </defs>
    <g fill="none" fill-rule="evenodd">
        <g transform="translate(0 76.716)">
            <mask id="b" fill="#fff">
                <use xlink:href="#a"/>
            </mask>
            <path d="M122.273 2.613c-4-2.31-10.546-2.31-14.546 0L2.987 63.083c-4 2.31-3.98 6.054.046 8.32L107.68 130.3c4.026 2.266 10.613 2.266 14.638 0l104.649-58.898c4.026-2.266 4.046-6.01.045-8.32l-104.74-60.47z" fill-opacity=".2" fill="#6976D4" fill-rule="nonzero" mask="url(#b)"/>
        </g>
        <path d="M164.276 54.23L75.7 3.09c-1.148-.661-2.188-.737-2.974-.356l-.03-.05-6.155 3.788c-.943.392-1.555 1.408-1.555 2.948v93.953l-25.81-14.901v44.702l51.619 29.8v-33.92l67.179 38.786c1.01.583 1.933.703 2.678.468l.01.019.11-.065c.223-.085.424-.203.606-.355l6.117-3.595-.018-.022c.745-.483 1.21-1.434 1.21-2.78V61.874c0-2.803-1.985-6.242-4.412-7.643" fill="#E5F6F9" fill-rule="nonzero"/>
        <path d="M90.795 126.554c.432 0 .863.112 1.25.335l67.18 38.786c.338.195.547.236.636.244.08-.06.163-.117.25-.168l5.796-3.406c.064-.05.13-.1.2-.145.002.003.081-.18.081-.689V61.873c0-1.912-1.507-4.523-3.163-5.478L74.45 5.256c-.468-.27-.683-.25-.695-.252-.064.032-.13.061-.197.086l-5.707 3.511c-.083.052-.17.1-.259.14-.036.08-.106.284-.106.68v93.951c0 .893-.476 1.72-1.25 2.165-.773.447-1.726.447-2.5 0L41.678 92.802v38.928l46.617 26.915v-29.59c0-.894.477-1.719 1.25-2.166.387-.223.818-.335 1.25-.335m69.09 44.37c-.89 0-1.962-.227-3.16-.92l-63.43-36.62v29.591c0 .893-.477 1.718-1.25 2.165-.773.446-1.727.446-2.5 0l-51.617-29.8c-.774-.448-1.25-1.273-1.25-2.166V88.471c0-.893.476-1.718 1.25-2.165.773-.446 1.726-.446 2.5 0l22.058 12.736V9.42c0-2.394 1.073-4.304 2.882-5.162l6.02-3.703c.291-.179.612-.295.944-.344 1.436-.438 3.046-.192 4.617.714l88.576 51.14c3.175 1.832 5.663 6.141 5.663 9.808v99.638c0 1.956-.684 3.56-1.936 4.576-.145.146-.31.274-.49.38l-5.972 3.51c-.278.21-.579.386-.898.527-.288.162-.603.264-.925.304-.32.07-.684.115-1.083.115" fill="#33475C" fill-rule="nonzero"/>
        <path d="M164.275 54.277L75.7 3.137c-1.147-.661-2.187-.737-2.973-.356l-.03-.05-6.557 4.035 4.596 5.82.552-.26V105.325c0 2.803 1.985 6.242 4.412 7.643l82.64 47.713-1.556.732 3.88 6.962 6.832-4.015-.017-.021c.743-.484 1.209-1.435 1.209-2.78V61.92c0-2.802-1.985-6.242-4.413-7.643" fill="#CBD6E3" fill-rule="nonzero"/>
        <path d="M157.48 161.636l3.37 6.047 6.259-3.677c.027-.034.06-.064.098-.088.632-.412.98-1.25.98-2.36V61.92c0-2.606-1.905-5.908-4.162-7.21L75.45 3.571c-.945-.546-1.834-.666-2.504-.34-.061.03-.124.045-.187.05L66.88 6.896l4 5.068.195-.09c.155-.073.336-.06.48.03.144.092.232.251.232.422v92.996c0 2.606 1.906 5.908 4.162 7.21l82.64 47.714c.162.093.259.268.25.454-.007.186-.118.352-.286.432l-1.073.503zm3.184 7.238c-.044 0-.088-.006-.131-.018-.13-.035-.24-.12-.306-.239l-3.88-6.962c-.067-.122-.082-.265-.04-.397.043-.132.139-.24.264-.299l.69-.325L75.45 113.4c-2.571-1.485-4.662-5.108-4.662-8.077v-92.24c-.161.017-.336-.05-.445-.187l-4.595-5.82c-.088-.112-.125-.257-.1-.398.024-.14.108-.263.23-.338l6.557-4.035c.09-.056.199-.079.303-.072.934-.353 2.065-.19 3.212.471l88.575 51.14c2.57 1.484 4.663 5.107 4.663 8.076v99.638c0 1.388-.461 2.483-1.303 3.106-.036.051-.082.094-.136.126l-6.832 4.015c-.078.045-.165.07-.253.07z" fill="#33475C" fill-rule="nonzero"/>
        <path d="M64.987 8.371c0-2.2 1.559-3.1 3.464-2l90.472 52.235c1.905 1.1 3.464 3.8 3.464 6v76.352c0 2.2-1.559 3.1-3.464 2L68.451 90.724c-1.905-1.102-3.464-3.802-3.464-6V8.37z" fill="#E4EBEF" fill-rule="nonzero"/>
        <path d="M66.913 6.4c-.244 0-.467.055-.659.167-.495.285-.768.926-.768 1.804v76.352c0 2.011 1.472 4.561 3.214 5.567l90.473 52.234c.761.44 1.453.523 1.946.237.495-.285.768-.926.768-1.804v-76.35c0-2.013-1.472-4.562-3.214-5.568L68.2 6.804c-.464-.268-.903-.404-1.287-.404m93.55 137.53c-.56 0-1.169-.182-1.79-.54L68.2 91.156c-2.048-1.183-3.714-4.068-3.714-6.433V8.371c0-1.25.45-2.199 1.268-2.67.818-.47 1.864-.387 2.946.237l90.473 52.234c2.048 1.183 3.714 4.07 3.714 6.434v76.351c0 1.25-.45 2.198-1.268 2.671-.349.201-.739.301-1.156.301" fill="#33475C" fill-rule="nonzero"/>
        <path d="M64.987 33.849c0-2.2 1.559-3.1 3.464-2l90.472 52.235c1.905 1.099 3.464 3.8 3.464 6v76.35c0 2.2-1.559 3.1-3.464 2l-90.472-52.233c-1.905-1.1-3.464-3.8-3.464-6V33.849z" fill="#E4EBEF" fill-rule="nonzero"/>
        <path d="M66.914 31.878c-.245 0-.468.055-.66.167-.495.285-.768.926-.768 1.804v76.35c0 2.013 1.472 4.563 3.214 5.568l90.473 52.235c.761.44 1.453.523 1.946.237.495-.285.768-.926.768-1.804V90.084c0-2.013-1.472-4.562-3.214-5.567L68.2 32.282c-.464-.268-.902-.404-1.286-.404m93.55 137.529c-.562 0-1.17-.181-1.79-.54L68.2 116.634c-2.048-1.182-3.714-4.067-3.714-6.433V33.849c0-1.25.45-2.2 1.268-2.671.818-.47 1.864-.387 2.946.238l90.473 52.234c2.048 1.183 3.714 4.068 3.714 6.434v76.35c0 1.25-.45 2.199-1.268 2.672-.349.2-.739.3-1.156.3" fill="#33475C" fill-rule="nonzero"/>
        <path fill="#FFF" fill-rule="nonzero" d="M64.987 20.932l97.4 56.234v84.352l-97.4-56.234z"/>
        <path d="M65.487 104.995l96.4 55.657V77.455l-96.4-55.657v83.197zm96.9 57.023c-.087 0-.173-.023-.25-.067l-97.4-56.234c-.154-.09-.25-.255-.25-.433V20.932c0-.18.096-.344.25-.433.154-.09.346-.09.5 0l97.4 56.234c.155.09.25.255.25.433v84.352c0 .179-.095.344-.25.433-.077.044-.165.067-.25.067z" fill="#33475C" fill-rule="nonzero"/>
        <path fill="#CBD6E3" fill-rule="nonzero" d="M64.987 20.932l97.4 56.234v18.543l-97.4-56.235z"/>
        <path d="M65.487 39.185l96.4 55.657V77.454l-96.4-55.656v17.387zm97.4 57.39l-98.4-56.813V20.066l98.4 56.813v19.698z" fill="#33475C" fill-rule="nonzero"/>
        <path fill="#FFF" fill-rule="nonzero" d="M115.774 39.264v-.004l-26.7-15.416v6.185l19.922 11.502v.004l26.7 15.416v-6.185z"/>
        <path d="M109.297 41.132l25.898 14.953v-5.031l-19.671-11.357c-.018-.01-.036-.022-.052-.034L89.573 24.71v5.03l19.672 11.358c.018.01.035.022.052.034m26.398 16.319c-.086 0-.172-.022-.25-.067l-26.7-15.416-.052-.034-19.87-11.472c-.154-.09-.25-.254-.25-.433v-6.186c0-.178.096-.343.25-.433.155-.09.346-.09.5 0l26.701 15.416c.017.01.035.022.051.035l19.87 11.472c.155.089.25.254.25.433v6.185c0 .179-.095.344-.25.433-.077.045-.164.067-.25.067" fill="#33475C" fill-rule="nonzero"/>
        <path d="M82.843 26.713c1.51.872 2.747.159 2.747-1.586s-1.236-3.885-2.747-4.758c-1.511-.872-2.746-.158-2.746 1.586 0 1.745 1.235 3.886 2.746 4.758" fill="#40CEBB" fill-rule="nonzero"/>
        <path d="M81.622 20.498c-.176 0-.335.038-.469.115-.353.206-.556.695-.556 1.343 0 1.563 1.142 3.543 2.496 4.323.561.325 1.085.393 1.44.19.354-.206.557-.695.557-1.343 0-1.562-1.144-3.543-2.497-4.324-.349-.2-.683-.303-.97-.303m2.441 7.088c-.463 0-.963-.148-1.47-.442-1.654-.953-2.997-3.282-2.997-5.19 0-1.03.375-1.813 1.056-2.206.682-.394 1.546-.327 2.44.188 1.652.953 2.997 3.282 2.997 5.19 0 1.03-.375 1.814-1.057 2.207-.293.17-.62.253-.969.253" fill="#33475C" fill-rule="nonzero"/>
        <path d="M74.105 21.833c1.51.872 2.747.158 2.747-1.586 0-1.745-1.236-3.886-2.747-4.758-1.511-.872-2.747-.158-2.747 1.586 0 1.745 1.236 3.885 2.747 4.758" fill="#FFAB7D" fill-rule="nonzero"/>
        <path d="M74.355 21.4c.56.323 1.082.393 1.44.188.354-.204.557-.693.557-1.34 0-1.564-1.143-3.544-2.497-4.326-.561-.324-1.084-.39-1.44-.188-.354.205-.557.693-.557 1.341 0 1.563 1.143 3.543 2.497 4.325m.97 1.308c-.461 0-.961-.148-1.47-.442-1.652-.954-2.997-3.283-2.997-5.19 0-1.03.375-1.814 1.057-2.208.682-.393 1.548-.325 2.44.188 1.652.954 2.997 3.283 2.997 5.191 0 1.03-.375 1.814-1.057 2.207-.293.17-.62.254-.97.254" fill="#33475C" fill-rule="nonzero"/>
        <path fill="#E5F6F9" fill-rule="nonzero" d="M85.59 61.456l51.617 29.802v44.701l-51.617-29.8z"/>
        <path d="M87.324 62.96c-.09 0-.18-.03-.25-.07l-1.04-.6c-.079.17-.26.28-.449.28-.27 0-.49-.23-.49-.51v-.6c0-.18.09-.35.24-.44.16-.09.35-.09.51 0l1.73 1c.11.07.2.18.23.31s.02.26-.05.38c-.09.15-.25.25-.43.25m3.46 2c-.09 0-.17-.03-.25-.07l-1.73-1c-.16-.09-.25-.25-.25-.42 0-.09.02-.18.07-.26.13-.23.45-.32.68-.19l1.73 1c.12.07.2.18.23.31.04.13.02.26-.05.38-.09.15-.25.25-.43.25m-5.2 1.6c-.27 0-.49-.22-.49-.5v-1.99c0-.28.22-.51.49-.51.28 0 .51.23.51.51v1.99c0 .28-.23.5-.51.5m8.66.4c-.08 0-.17-.03-.24-.07l-1.74-1c-.15-.09-.24-.25-.25-.42 0-.1.02-.19.07-.26.13-.23.45-.32.68-.19l1.73 1c.12.07.2.18.24.31.03.12.02.26-.05.37-.09.16-.26.26-.44.26m3.47 2c-.09 0-.17-.03-.25-.07l-1.73-1c-.16-.09-.25-.25-.25-.42-.01-.09.02-.18.06-.26.14-.24.46-.32.69-.19l1.73 1c.24.14.32.45.18.69-.09.15-.25.25-.43.25m-12.13 1.6c-.27 0-.49-.22-.49-.49v-2.01c0-.27.22-.5.49-.5.28 0 .51.23.51.5v2.01c0 .27-.23.49-.51.49m15.59.39c-.09 0-.17-.02-.25-.06l-1.73-1c-.15-.09-.25-.25-.25-.42 0-.1.02-.19.07-.26.13-.23.45-.32.68-.19l1.73 1c.24.14.32.45.18.69-.08.15-.25.24-.43.24m3.46 2.01c-.08 0-.17-.03-.24-.07l-1.74-1c-.15-.09-.24-.25-.25-.42 0-.1.03-.19.07-.27.14-.22.45-.31.69-.18l1.73 1c.11.07.2.18.23.31s.02.26-.05.37c-.09.16-.26.26-.44.26m-19.05 1.6c-.27 0-.49-.22-.49-.5v-2c0-.27.22-.49.49-.49.28 0 .51.22.51.49v2c0 .28-.23.5-.51.5m22.52.4c-.09 0-.17-.03-.25-.07l-1.73-1c-.15-.09-.25-.25-.25-.42 0-.09.02-.18.07-.26.13-.24.45-.32.68-.19l1.73 1c.24.14.32.45.18.69-.09.15-.25.25-.43.25m3.46 2c-.08 0-.17-.03-.24-.07l-1.74-1c-.15-.09-.24-.25-.25-.42 0-.09.02-.18.07-.26.14-.23.45-.32.68-.19l1.74 1c.11.07.19.18.23.3.03.13.02.27-.05.39-.09.15-.26.25-.44.25m-25.98 1.6c-.27 0-.49-.22-.49-.5v-1.99c0-.28.22-.5.49-.5.28 0 .51.22.51.5v1.99c0 .28-.23.5-.51.5m29.45.4c-.09 0-.18-.03-.25-.07l-1.73-1c-.15-.09-.25-.25-.25-.42-.01-.1.02-.19.07-.27.13-.22.45-.31.68-.18l1.73 1c.12.07.2.18.23.31.04.13.02.26-.05.38-.09.15-.25.25-.43.25m3.46 2c-.09 0-.17-.03-.25-.07l-1.73-1c-.15-.09-.25-.25-.25-.42 0-.1.02-.19.07-.26.13-.24.45-.32.68-.19l1.73 1c.24.14.32.45.19.69-.09.15-.26.25-.44.25m-32.91 1.6c-.27 0-.49-.22-.49-.5v-1.99c0-.28.22-.51.49-.51.28 0 .51.23.51.51v1.99c0 .28-.23.5-.51.5m36.37.4c-.08 0-.17-.03-.24-.07l-1.73-1c-.15-.09-.25-.25-.25-.42-.01-.09.02-.18.06-.26.14-.23.46-.32.69-.19l1.73 1c.11.07.2.18.23.3.04.13.02.27-.05.39-.09.15-.26.25-.44.25m3.47 2c-.09 0-.17-.03-.25-.07l-1.73-1c-.15-.09-.25-.25-.25-.42 0-.1.02-.19.07-.27.13-.22.45-.31.68-.18l1.73 1c.12.07.2.18.24.31.03.13.01.26-.06.38-.08.15-.25.25-.43.25m-39.84 1.6c-.27 0-.49-.22-.49-.49v-2.01c0-.27.22-.5.49-.5.28 0 .51.23.51.5v2.01c0 .27-.23.49-.51.49m43.31.4c-.09 0-.18-.03-.26-.07l-1.73-1c-.15-.09-.24-.25-.25-.42 0-.09.02-.18.07-.26.13-.23.45-.32.69-.19l1.73 1c.11.07.19.18.23.31.03.13.01.26-.05.38-.09.15-.26.25-.43.25m3.46 2c-.09 0-.18-.03-.25-.07l-1.73-1c-.15-.09-.25-.25-.25-.42 0-.1.02-.19.07-.26.12-.23.44-.32.68-.19l1.73 1c.11.07.2.18.23.31.04.13.02.26-.05.37-.09.16-.26.26-.43.26m-46.77 1.61c-.27 0-.49-.23-.49-.51v-2c0-.27.22-.49.49-.49.28 0 .51.22.51.49v2c0 .28-.23.51-.51.51m50.23.39c-.08 0-.17-.03-.25-.07l-1.73-1c-.15-.09-.25-.25-.25-.42 0-.09.02-.19.07-.26.13-.23.45-.32.68-.19l1.73 1c.12.07.2.18.24.31.03.12.01.26-.05.38-.09.15-.26.25-.44.25m1.39 3.2c-.27 0-.5-.23-.5-.51v-2c0-.27.23-.49.5-.49.28 0 .5.22.5.49v2c0 .28-.22.51-.5.51m-51.62.4c-.27 0-.49-.22-.49-.5v-1.99c0-.28.22-.51.49-.51.28 0 .51.23.51.51v1.99c0 .28-.23.5-.51.5m51.62 3.59c-.27 0-.5-.22-.5-.5v-1.99c0-.28.23-.51.5-.51.28 0 .5.23.5.51v1.99c0 .28-.22.5-.5.5m-51.62.41c-.27 0-.49-.22-.49-.49v-2.01c0-.27.22-.5.49-.5.28 0 .51.23.51.5v2.01c0 .27-.23.49-.51.49m51.62 3.59c-.27 0-.5-.22-.5-.49v-2.01c0-.27.23-.5.5-.5.28 0 .5.23.5.5v2.01c0 .27-.22.49-.5.49m-51.62.41c-.27 0-.49-.22-.49-.5v-2c0-.27.22-.49.49-.49.28 0 .51.22.51.49v2c0 .28-.23.5-.51.5m51.62 3.59c-.27 0-.5-.22-.5-.5v-2c0-.27.23-.49.5-.49.28 0 .5.22.5.49v2c0 .28-.22.5-.5.5m-51.62.41c-.27 0-.49-.22-.49-.5v-1.99c0-.28.22-.51.49-.51.28 0 .51.23.51.51v1.99c0 .28-.23.5-.51.5m3.39 2.05c-.09 0-.18-.02-.25-.07l-1.73-1c-.24-.13-.32-.44-.19-.68.14-.23.46-.32.69-.18l1.73 1c.16.09.25.26.25.44 0 .09-.03.17-.07.24-.09.16-.25.25-.43.25m48.23 1.54c-.27 0-.5-.22-.5-.5v-1.99c0-.28.23-.51.5-.51.28 0 .5.23.5.51v1.99c0 .28-.22.5-.5.5m-44.77.46c-.09 0-.17-.02-.25-.07l-1.73-1c-.11-.06-.2-.17-.23-.3-.04-.13-.02-.26.05-.38.13-.23.45-.32.68-.18l1.73 1c.16.09.26.26.25.44 0 .09-.02.17-.06.24-.09.16-.26.25-.44.25m3.47 2c-.09 0-.18-.02-.25-.07l-1.74-1c-.23-.14-.32-.44-.18-.68.13-.23.45-.31.68-.18l1.74 1c.16.09.25.26.25.44-.01.09-.03.17-.07.24-.09.15-.26.25-.43.25m41.3 1.54c-.27 0-.5-.22-.5-.49v-2.01c0-.27.23-.5.5-.5.28 0 .5.23.5.5v2.01c0 .27-.22.49-.5.49m-37.84.46c-.09 0-.17-.02-.25-.07l-1.73-1c-.24-.13-.32-.44-.19-.68.14-.23.45-.32.69-.18l1.73 1c.16.09.25.26.25.44 0 .09-.03.17-.07.24-.09.16-.25.25-.43.25m3.46 2c-.08 0-.17-.02-.24-.07l-1.74-1c-.24-.13-.32-.44-.18-.68.13-.23.45-.32.68-.18l1.74 1c.15.09.25.26.24.44 0 .09-.02.17-.06.24-.09.16-.26.25-.44.25m34.38 1.54c-.27 0-.5-.22-.5-.49v-2.01c0-.27.23-.5.5-.5.28 0 .5.23.5.5v2.01c0 .27-.22.49-.5.49m-30.91.46c-.09 0-.17-.02-.25-.07l-1.73-1c-.24-.13-.32-.44-.19-.68.13-.23.45-.31.69-.18l1.73 1c.16.09.25.26.25.44 0 .09-.03.17-.07.24-.09.15-.25.25-.43.25m3.46 2c-.08 0-.17-.02-.25-.07l-1.73-1c-.24-.13-.32-.44-.18-.68.13-.23.45-.32.68-.18l1.73 1c.16.09.26.26.25.44 0 .09-.02.17-.06.24-.09.16-.26.25-.44.25m27.45 1.55c-.27 0-.5-.23-.5-.51v-2c0-.27.23-.49.5-.49.28 0 .5.22.5.49v2c0 .28-.22.51-.5.51m-23.99.45c-.08 0-.17-.02-.24-.06l-1.74-1.01c-.23-.13-.32-.44-.18-.68.13-.23.45-.32.68-.18l1.74 1c.15.09.25.26.25.44-.01.09-.03.17-.07.24-.09.15-.26.25-.44.25m3.47 2c-.09 0-.17-.02-.25-.07l-1.73-1c-.24-.14-.32-.44-.19-.68.14-.23.45-.32.69-.18l1.73 1c.16.09.25.26.25.44 0 .08-.02.17-.06.24-.1.16-.26.25-.44.25m20.52 1.54c-.27 0-.5-.22-.5-.5v-1.99c0-.28.23-.51.5-.51.28 0 .5.23.5.51v1.99c0 .28-.22.5-.5.5m-17.05.46c-.09 0-.18-.02-.25-.07l-1.74-.99c-.23-.14-.32-.45-.18-.69.13-.23.46-.32.68-.18l1.74 1c.15.09.25.26.24.44 0 .09-.02.17-.06.24-.09.16-.25.25-.43.25m3.46 2c-.09 0-.18-.02-.25-.06l-1.74-1.01c-.11-.06-.19-.17-.23-.3-.03-.13-.01-.26.05-.38.14-.23.46-.32.69-.18l1.73 1c.16.09.25.26.25.44 0 .09-.03.17-.07.24-.09.15-.25.25-.43.25m13.59 1.54c-.27 0-.5-.22-.5-.49v-2.01c0-.27.23-.5.5-.5.28 0 .5.23.5.5v2.01c0 .27-.22.49-.5.49m-10.13.46c-.08 0-.17-.02-.25-.07l-1.73-1c-.24-.13-.32-.44-.18-.68.13-.23.45-.32.68-.18l1.74 1c.15.09.25.26.24.44 0 .08-.02.17-.06.24-.09.16-.26.25-.44.25m3.47 2c-.09 0-.18-.02-.25-.07l-1.74-.99c-.23-.14-.32-.45-.18-.69.13-.23.45-.32.69-.18l1.73 1c.16.09.25.26.25.44 0 .09-.03.17-.07.24-.09.16-.25.25-.43.25m6.66 1.55c-.27 0-.5-.23-.5-.51v-2c0-.27.23-.49.5-.49.28 0 .5.22.5.49v2c0 .28-.22.51-.5.51m-3.2.45c-.09 0-.17-.02-.25-.06l-1.73-1.01c-.24-.13-.32-.44-.19-.68.14-.23.46-.31.69-.18l1.73 1c.16.09.26.26.25.44 0 .09-.02.17-.07.24-.08.15-.25.25-.43.25m3.2 1.85c-.09 0-.17-.02-.25-.07l-1.47-.85c-.23-.13-.32-.44-.18-.68.13-.23.45-.32.68-.18l.96.55c.31-.19.76.06.76.43v.3c0 .18-.09.34-.25.43-.07.05-.16.07-.25.07" fill="#33475C" fill-rule="nonzero"/>
        <path d="M85.59 61.456L39.178 88.52" fill="#E5F6F9" fill-rule="nonzero"/>
        <path d="M83.864 62.96c-.18 0-.35-.09-.439-.24-.13-.24-.05-.55.18-.69l1.73-1.01c.23-.13.55-.05.69.19.14.23.05.54-.18.68l-1.73 1c-.08.05-.16.07-.25.07m-3.46 2.02c-.18 0-.34-.1-.43-.25-.14-.24-.06-.54.18-.68l1.73-1.01c.23-.14.54-.05.68.18.05.08.07.17.07.26 0 .17-.1.33-.25.42l-1.73 1.01c-.07.04-.16.07-.25.07m-3.45 2.01c-.18 0-.35-.09-.44-.25-.14-.24-.06-.54.18-.68l1.73-1.01c.23-.13.55-.05.69.18.04.08.06.17.06.26 0 .18-.09.34-.24.43l-1.73 1.01c-.08.04-.16.06-.25.06m-3.46 2.02c-.18 0-.34-.1-.43-.25-.14-.24-.06-.55.18-.68l1.72-1.01c.24-.14.56-.05.69.18.05.08.07.17.07.26-.01.17-.1.34-.25.42l-1.73 1.01c-.07.04-.16.07-.25.07m-3.45 2.01c-.18 0-.35-.09-.44-.25-.14-.23-.05-.54.18-.68l1.73-1.01c.23-.13.55-.05.69.18.04.08.06.17.06.26 0 .18-.1.34-.25.43l-1.72 1c-.08.05-.17.07-.25.07m-3.46 2.02c-.18 0-.34-.1-.43-.25-.14-.24-.06-.54.18-.68l1.72-1.01c.24-.14.56-.05.69.18.04.08.07.17.07.26-.01.17-.1.33-.25.42l-1.73 1.01c-.08.04-.16.07-.25.07m-3.45 2.01c-.18 0-.35-.09-.44-.25-.14-.24-.06-.54.18-.68l1.73-1.01c.23-.13.55-.05.69.18.04.08.06.17.06.26 0 .18-.1.34-.25.43l-1.72 1c-.08.05-.17.07-.25.07m-3.46 2.02c-.18 0-.34-.1-.43-.25-.14-.24-.06-.55.17-.69l1.73-1c.24-.14.56-.05.69.18.04.08.07.17.07.26-.01.17-.1.33-.25.42L59.924 77c-.08.04-.16.07-.25.07m-3.46 2.01c-.17 0-.34-.09-.43-.25-.14-.24-.06-.54.18-.68l1.73-1.01c.23-.13.55-.05.68.18.05.08.07.17.07.26 0 .18-.1.34-.25.43l-1.73 1c-.07.05-.16.07-.25.07m-3.45 2.02c-.18 0-.35-.1-.43-.25-.14-.24-.06-.54.17-.68l1.73-1.01c.24-.14.55-.05.69.17.04.08.07.17.07.27-.01.17-.1.33-.25.42l-1.73 1.01c-.08.04-.16.07-.25.07m-3.46 2.01c-.18 0-.34-.09-.43-.25-.14-.24-.06-.54.18-.68l1.73-1.01c.23-.13.55-.05.68.18.05.08.07.17.07.26 0 .18-.1.34-.25.43l-1.73 1c-.07.05-.16.07-.25.07m-3.45 2.02c-.18 0-.34-.1-.43-.25-.14-.24-.06-.55.17-.69l1.73-1c.23-.14.55-.05.68.18.05.08.08.17.07.26 0 .17-.09.33-.24.42l-1.73 1.01c-.08.04-.16.07-.25.07m-3.46 2.01c-.18 0-.34-.09-.43-.25-.14-.23-.06-.54.18-.68l1.73-1.01c.23-.14.55-.05.68.18.05.08.07.17.07.26 0 .18-.1.34-.25.43l-1.73 1c-.07.05-.16.07-.25.07m-3.22 1.88c-.18 0-.34-.09-.43-.25-.14-.24-.06-.54.18-.68l1.49-.87c.23-.14.55-.05.68.18.05.08.07.16.07.26 0 .17-.09.33-.24.42l-1.5.87c-.07.04-.16.07-.25.07" fill="#33475C" fill-rule="nonzero"/>
        <path d="M137.207 135.96l-46.412 27.062" fill="#E5F6F9" fill-rule="nonzero"/>
        <path d="M135.484 137.47c-.18 0-.35-.1-.439-.25-.07-.12-.08-.25-.05-.38s.12-.24.23-.31l1.73-1c.23-.14.55-.05.68.18.07.11.09.25.06.38-.04.13-.12.23-.24.3l-1.72 1.01c-.08.04-.17.07-.25.07m-3.46 2.01c-.18 0-.34-.09-.44-.25-.13-.24-.05-.54.19-.68l1.72-1.01c.23-.13.55-.05.69.18.05.08.07.17.07.26-.01.18-.1.34-.25.42l-1.73 1.01c-.07.05-.16.07-.25.07m-3.46 2.02c-.17 0-.34-.1-.43-.25-.14-.24-.06-.54.18-.69l1.73-1c.23-.14.55-.05.68.17.05.09.07.18.07.27 0 .17-.09.33-.25.42l-1.73 1.01c-.07.04-.16.07-.25.07m-3.45 2.01c-.18 0-.34-.09-.43-.25-.14-.23-.06-.54.18-.68l1.72-1.01c.24-.13.55-.05.69.18.04.08.07.17.06.26 0 .18-.09.34-.24.43l-1.73 1c-.08.05-.16.07-.25.07m-3.46 2.02c-.18 0-.34-.1-.43-.25-.14-.24-.06-.55.18-.69l1.73-1c.23-.14.55-.06.68.18.05.08.07.17.07.26 0 .17-.1.33-.25.42l-1.72 1.01c-.08.04-.17.07-.26.07m-3.45 2.01c-.18 0-.35-.09-.44-.25-.13-.23-.05-.54.18-.68l1.73-1.01c.23-.14.55-.05.69.18.04.08.07.17.06.26 0 .18-.09.34-.25.42l-1.72 1.01c-.08.05-.16.07-.25.07m-3.46 2.02c-.17 0-.34-.1-.43-.25-.14-.24-.06-.55.18-.69l1.73-1c.23-.14.54-.05.68.17.05.08.07.17.07.27-.01.17-.1.33-.25.42l-1.73 1.01c-.07.04-.16.07-.25.07m-3.46 2.01c-.17 0-.34-.09-.43-.25-.13-.24-.05-.54.18-.68l1.73-1.01c.24-.13.55-.05.69.18.04.08.06.17.06.26 0 .18-.09.34-.24.43l-1.73 1c-.08.05-.17.07-.26.07m-3.45 2.01c-.18 0-.34-.09-.43-.24-.07-.12-.09-.25-.05-.38.03-.13.11-.24.23-.31l1.73-1c.23-.14.55-.05.68.18.05.08.07.17.07.26 0 .17-.1.33-.25.42l-1.73 1.01c-.08.04-.16.06-.25.06m-3.45 2.02c-.18 0-.35-.09-.44-.25-.07-.11-.08-.25-.05-.38.04-.13.12-.24.23-.3l1.73-1.01c.23-.13.55-.05.69.18.04.08.06.17.06.26 0 .18-.09.34-.25.42l-1.72 1.01c-.08.05-.17.07-.25.07m-3.46 2.01c-.18 0-.34-.09-.43-.24-.14-.24-.06-.55.18-.69l1.72-1c.24-.14.55-.05.69.17.04.08.07.17.07.27-.01.17-.1.33-.25.42l-1.73 1.01c-.08.04-.16.06-.25.06m-3.45 2.02c-.18 0-.35-.1-.44-.25-.14-.24-.05-.54.18-.68l1.73-1.01c.23-.13.55-.05.68.18.05.08.07.17.07.26 0 .17-.1.34-.24.43l-1.73 1c-.08.05-.17.07-.25.07m-3.46 2.01c-.18 0-.35-.09-.43-.24-.07-.12-.09-.25-.06-.38.04-.13.12-.24.23-.31l1.74-1c.23-.14.55-.05.68.18.05.07.07.17.07.26-.01.17-.1.33-.25.42l-1.73 1.01c-.08.04-.16.06-.25.06m-3.22 1.88c-.18 0-.34-.09-.43-.25-.07-.11-.09-.25-.05-.37.03-.13.11-.24.23-.31l1.49-.87c.23-.14.55-.05.68.18.05.08.07.17.07.26 0 .18-.1.33-.25.42l-1.49.87c-.08.05-.16.07-.25.07" fill="#33475C" fill-rule="nonzero"/>
        <path d="M85.59 106.159l-6.523 3.8" fill="#E5F6F9" fill-rule="nonzero"/>
        <path d="M83.864 107.66c-.18 0-.35-.09-.439-.24-.13-.24-.05-.55.18-.69l1.73-1c.23-.14.55-.05.69.18.14.24.05.54-.18.68l-1.73 1.01c-.08.04-.16.06-.25.06m-3.46 2.02c-.18 0-.34-.1-.43-.25-.14-.24-.06-.54.18-.68l1.73-1.01c.23-.13.55-.05.68.18.05.08.07.17.07.26 0 .17-.1.34-.25.42l-1.73 1.01c-.07.04-.16.07-.25.07" fill="#33475C" fill-rule="nonzero"/>
        <path fill="#1D2B33" fill-rule="nonzero" d="M39.178 88.519l51.617 29.801v44.702l-51.617-29.801z"/>
        <path d="M39.428 133.077l51.117 29.513v-44.125L39.428 88.952v44.125zm51.367 30.196c-.043 0-.086-.011-.125-.034l-51.617-29.801c-.077-.045-.125-.127-.125-.216V88.519c0-.09.048-.171.125-.216.078-.045.172-.045.25 0l51.617 29.8c.077.046.125.128.125.218v44.702c0 .089-.048.172-.125.216-.04.023-.082.034-.125.034z" fill="#FFF" fill-rule="nonzero"/>
        <path fill="#FFF" fill-rule="nonzero" d="M51.753 121.603l-4.97-5.224v-.88l4.97.505v.838l-4.207-.463 4.207 4.386z"/>
        <path fill="#0BD1D1" fill-rule="nonzero" d="M53.019 123.269l-.651-.655 2.978-6.557.643.65z"/>
        <path d="M59.776 122.957c-.155-.275-.318-.511-.488-.706-.17-.195-.373-.361-.61-.498-.23-.132-.428-.199-.6-.201-.17-.002-.315.048-.428.151-.114.102-.203.245-.261.429-.059.185-.089.395-.089.632 0 .236.035.48.103.731.069.251.165.49.288.72.124.229.273.439.447.628.174.191.37.348.587.474.236.136.438.204.605.203.168 0 .323-.051.465-.155l.596 1.032c-.218.154-.47.208-.76.164-.288-.045-.593-.161-.916-.347-.34-.197-.654-.442-.934-.734-.283-.292-.526-.613-.733-.964-.204-.351-.363-.722-.474-1.113-.111-.39-.167-.782-.167-1.177 0-.394.056-.724.168-.989.11-.265.267-.457.47-.577.201-.12.444-.165.725-.134.282.03.598.145.945.347.323.185.631.43.926.733.294.302.552.653.769 1.05l-.633.301zM61.787 125.311c0 .258.034.516.103.774.068.258.164.499.288.726.124.226.276.435.456.628.18.194.382.355.605.484.224.129.425.201.605.215.18.014.333-.019.456-.102.124-.082.22-.213.29-.392.066-.18.101-.398.101-.656s-.035-.516-.102-.774c-.069-.258-.165-.5-.289-.726-.123-.225-.276-.435-.456-.628-.18-.194-.38-.355-.605-.484-.223-.128-.426-.201-.605-.215-.18-.014-.332.02-.456.102-.124.083-.22.214-.288.393-.069.178-.103.397-.103.655m-.894-.516c0-.372.061-.685.182-.938.121-.252.286-.44.498-.561.211-.122.46-.17.744-.145.286.025.593.133.922.322.33.191.636.438.921.742.286.304.534.639.745 1.005.211.365.377.744.498 1.136.121.393.181.775.181 1.147 0 .373-.06.688-.18.944-.122.257-.288.443-.499.562-.21.117-.459.164-.745.139-.285-.024-.592-.132-.92-.322-.33-.19-.637-.437-.923-.742-.285-.304-.533-.637-.744-.999-.212-.362-.377-.741-.498-1.137-.12-.396-.182-.78-.182-1.153M68.769 131.116c.224.129.425.2.604.214.18.015.333-.02.457-.102.124-.082.22-.213.289-.392.068-.18.102-.397.102-.656 0-.257-.034-.515-.102-.773-.07-.258-.165-.5-.29-.726-.123-.225-.275-.435-.456-.628-.18-.194-.38-.355-.604-.484-.224-.13-.426-.201-.605-.215-.18-.014-.332.02-.457.102-.124.082-.22.213-.288.392-.068.179-.102.398-.102.656s.034.516.102.774c.069.258.164.499.288.725.125.226.277.436.457.629.179.193.38.355.605.484zm2.289 2.095l-.837-.483v-.731l-.018-.011c-.162.179-.383.263-.666.25-.283-.013-.573-.104-.871-.276-.341-.198-.65-.444-.925-.74-.277-.295-.513-.621-.708-.978-.196-.356-.346-.726-.452-1.11-.105-.383-.158-.764-.158-1.144 0-.38.053-.702.158-.968.106-.264.256-.461.452-.588.195-.127.43-.18.708-.155.275.023.584.133.925.33.317.183.615.43.894.747.279.315.494.649.643.999l.018.01v-3.761l.837.484v8.125zM75.6 132.867c-.006-.219-.035-.433-.088-.643-.053-.209-.132-.41-.237-.604-.107-.194-.237-.373-.396-.54-.16-.167-.342-.31-.553-.433-.205-.118-.393-.18-.564-.19-.171-.009-.315.024-.432.1-.12.075-.21.181-.276.318-.064.138-.097.294-.097.466l2.644 1.526zm-2.643-.752c0 .222.04.448.125.68.084.23.195.45.33.657.137.208.296.4.475.576.18.175.366.318.56.43.259.15.487.211.678.182.194-.028.37-.11.532-.247l.632.924c-.465.427-1.117.398-1.955-.085-.347-.2-.663-.45-.944-.75-.282-.299-.521-.625-.717-.978-.195-.353-.346-.723-.452-1.11-.105-.387-.158-.77-.158-1.15 0-.38.058-.7.173-.96.115-.259.273-.45.474-.575.203-.123.443-.172.72-.147.28.025.585.133.914.322.39.226.722.496.99.81.27.313.493.647.666 1.002.174.354.3.713.378 1.077.077.363.116.71.116 1.04v.344l-3.537-2.042z" fill="#E56813" fill-rule="nonzero"/>
        <path fill="#FFF" fill-rule="nonzero" d="M77.48 130.868l4.972 5.224v.88l-4.972-.504v-.84l4.208.464-4.208-4.386z"/>
        <path d="M137.207 91.258L90.795 118.32" fill="#E5F6F9" fill-rule="nonzero"/>
        <path d="M135.484 92.77c-.18 0-.35-.1-.439-.25-.07-.12-.08-.25-.05-.38s.12-.24.23-.31l1.73-1c.23-.14.55-.05.68.17.14.24.06.55-.18.69l-1.72 1.01c-.08.04-.17.07-.25.07m-3.46 2.01c-.18 0-.35-.09-.44-.25-.13-.24-.05-.55.19-.68l1.72-1.01c.23-.13.55-.05.69.18.05.08.07.17.07.26-.01.18-.1.33-.25.42l-1.73 1.01c-.07.05-.16.07-.25.07m-3.46 2.01c-.17 0-.34-.09-.43-.24-.14-.24-.06-.55.18-.69l1.73-1.01c.23-.13.55-.05.68.18.05.08.07.17.07.26 0 .18-.1.34-.25.43l-1.73 1.01c-.07.04-.16.06-.25.06m-3.45 2.02c-.18 0-.35-.1-.43-.25-.14-.24-.06-.54.18-.68l1.72-1.01c.24-.13.55-.05.69.18.04.08.07.17.06.26 0 .17-.09.34-.24.42l-1.73 1.01c-.08.04-.16.07-.25.07m-3.46 2.01c-.18 0-.34-.09-.43-.25-.14-.23-.06-.54.18-.68l1.73-1c.23-.14.55-.06.68.17.05.08.07.17.07.27 0 .17-.1.33-.25.42l-1.72 1.01c-.08.04-.17.06-.26.06m-3.45 2.02c-.18 0-.35-.1-.44-.25-.13-.24-.05-.54.18-.68l1.73-1.01c.23-.14.55-.05.69.18.04.08.07.17.06.26 0 .18-.09.33-.25.42l-1.72 1.01c-.08.05-.16.07-.25.07m-3.46 2.01c-.17 0-.34-.09-.43-.24-.14-.24-.06-.55.18-.69l1.73-1.01c.23-.13.54-.05.68.19.05.07.07.16.07.26-.01.17-.1.33-.25.42l-1.73 1c-.07.05-.16.07-.25.07m-3.46 2.02c-.17 0-.34-.1-.43-.25-.13-.24-.05-.55.18-.68l1.73-1.01c.24-.14.55-.05.69.18.04.08.07.17.06.26 0 .18-.09.33-.24.42l-1.73 1.01c-.08.04-.17.07-.26.07m-3.45 2.01c-.18 0-.34-.09-.43-.25-.07-.11-.09-.24-.05-.37.03-.13.11-.24.23-.31l1.73-1.01c.22-.13.55-.04.68.18.05.08.07.17.07.27 0 .17-.1.33-.25.42l-1.73 1.01c-.08.04-.16.06-.25.06m-3.46 2.02c-.17 0-.34-.1-.43-.25-.07-.11-.08-.25-.05-.38.04-.13.12-.24.23-.3l1.73-1.01c.23-.14.55-.05.69.18.04.08.06.17.06.26 0 .18-.09.33-.25.42l-1.72 1.01c-.08.05-.17.07-.26.07m-3.45 2.01c-.18 0-.34-.09-.43-.24-.14-.24-.06-.55.18-.69l1.72-1.01c.24-.13.55-.05.69.18.04.08.07.17.07.26-.01.18-.1.34-.25.43l-1.73 1c-.08.05-.16.07-.25.07m-3.46 2.02c-.17 0-.34-.1-.43-.25-.14-.24-.05-.55.18-.68l1.73-1.01c.23-.14.55-.05.68.18.05.08.07.17.07.26 0 .17-.1.34-.24.42l-1.73 1.01c-.08.04-.17.07-.26.07m-3.45 2.01c-.18 0-.35-.09-.43-.25-.07-.11-.09-.24-.06-.37.04-.13.12-.24.23-.31l1.73-1.01c.24-.13.55-.05.69.18.04.08.07.17.06.26 0 .18-.09.34-.24.43l-1.73 1.01c-.08.04-.16.06-.25.06m-3.22 1.88c-.18 0-.34-.1-.43-.25-.07-.11-.09-.25-.05-.38.03-.13.11-.23.23-.3l1.49-.87c.23-.14.55-.05.68.18.05.08.07.17.07.26 0 .17-.1.33-.25.42l-1.49.87c-.08.05-.16.07-.25.07" fill="#33475C" fill-rule="nonzero"/>
    </g>
</svg>