<svg viewBox="0 0 146 203" xmlns="http://www.w3.org/2000/svg" xmlns:xlink="http://www.w3.org/1999/xlink">
    <defs>
        <path id="a" d="M12.44 1.078v13.847H1.199V1.078h11.24z"/>
    </defs>
    <g fill="none" fill-rule="evenodd">
        <path d="M68.653 121.821c2.497-1.442 6.583-1.442 9.08 0l65.377 37.746c2.498 1.442 2.485 3.779-.027 5.192l-65.32 36.765c-2.515 1.413-6.626 1.413-9.14 0l-65.32-36.765c-2.513-1.413-2.524-3.75-.028-5.192l65.378-37.746z" fill-opacity=".2" fill="#FF8F52"/>
        <path d="M100.4 160.113v-7.987h-3.784c-1.119-1.085-2.483-2.11-4.096-3.043-10.514-6.075-27.72-6.085-38.237-.016-1.625.937-2.998 1.967-4.12 3.06h-3.77v7.986c.002 3.995 2.63 7.993 7.88 11.028 10.513 6.076 27.72 6.085 38.237.016 5.263-3.035 7.893-7.039 7.89-11.044z" stroke="#33475C" stroke-width="5" stroke-linecap="round" stroke-linejoin="round"/>
        <path d="M54.273 163.156c-10.51-6.075-10.506-16.008.01-22.075 10.517-6.067 27.724-6.059 38.237.017 10.512 6.075 10.507 16.01-.012 22.076-10.516 6.065-27.723 6.057-38.235-.018z" stroke="#33475C" stroke-width="5" stroke-linecap="round" stroke-linejoin="round"/>
        <path d="M77.438 135.76l-8.085.777v11.887h.001c0 .599.395 1.197 1.179 1.654 1.573.907 4.15.908 5.725.001.788-.455 1.18-1.055 1.18-1.655V135.76z" stroke="#33475C" stroke-width="5" stroke-linecap="round" stroke-linejoin="round"/>
        <path d="M73.647 139.592c-33.894 0-61.469-27.576-61.469-61.469 0-10.92 2.898-21.644 8.385-31.013l5.46 3.199c-4.916 8.398-7.515 18.017-7.515 27.814 0 30.403 24.735 55.139 55.139 55.139 19.726 0 38.076-10.648 47.889-27.788l5.494 3.145c-10.938 19.104-31.393 30.973-53.383 30.973" stroke="#33475C" stroke-width="5" stroke-linecap="round" stroke-linejoin="round"/>
        <path d="M100.4 160.113v-7.987h-3.784c-1.119-1.085-2.483-2.11-4.096-3.043-10.514-6.075-27.72-6.085-38.237-.016-1.625.937-2.998 1.967-4.12 3.06h-3.77v7.986c.002 3.995 2.63 7.993 7.88 11.028 10.513 6.076 27.72 6.085 38.237.016 5.263-3.035 7.893-7.039 7.89-11.044" fill="#F6C364"/>
        <path d="M100.4 160.113v-7.987h-3.784c-1.119-1.085-2.483-2.11-4.096-3.043-10.514-6.075-27.72-6.085-38.237-.016-1.625.937-2.998 1.967-4.12 3.06h-3.77v7.986c.002 3.995 2.63 7.993 7.88 11.028 10.513 6.076 27.72 6.085 38.237.016 5.263-3.035 7.893-7.039 7.89-11.044z" stroke="#33475C" stroke-linecap="round" stroke-linejoin="round"/>
        <path d="M54.273 163.156c-10.51-6.075-10.506-16.008.01-22.075 10.517-6.067 27.724-6.059 38.237.017 10.512 6.075 10.507 16.01-.012 22.076-10.516 6.065-27.723 6.057-38.235-.018" fill="#FBE1B2"/>
        <path d="M54.273 163.156c-10.51-6.075-10.506-16.008.01-22.075 10.517-6.067 27.724-6.059 38.237.017 10.512 6.075 10.507 16.01-.012 22.076-10.516 6.065-27.723 6.057-38.235-.018z" stroke="#33475C" stroke-linecap="round" stroke-linejoin="round"/>
        <path d="M77.438 135.76l-8.085.777v11.887h.001c0 .599.395 1.197 1.179 1.654 1.573.907 4.15.908 5.725.001.788-.455 1.18-1.055 1.18-1.655V135.76z" fill="#F6C364"/>
        <path d="M77.438 135.76l-8.085.777v11.887h.001c0 .599.395 1.197 1.179 1.654 1.573.907 4.15.908 5.725.001.788-.455 1.18-1.055 1.18-1.655V135.76z" stroke="#33475C" stroke-linecap="round" stroke-linejoin="round"/>
        <path d="M73.647 139.592c-33.894 0-61.469-27.576-61.469-61.469 0-10.92 2.898-21.644 8.385-31.013l5.46 3.199c-4.916 8.398-7.515 18.017-7.515 27.814 0 30.403 24.735 55.139 55.139 55.139 19.726 0 38.076-10.648 47.889-27.788l5.494 3.145c-10.938 19.104-31.393 30.973-53.383 30.973" fill="#F6C364"/>
        <path d="M73.647 139.592c-33.894 0-61.469-27.576-61.469-61.469 0-10.92 2.898-21.644 8.385-31.013l5.46 3.199c-4.916 8.398-7.515 18.017-7.515 27.814 0 30.403 24.735 55.139 55.139 55.139 19.726 0 38.076-10.648 47.889-27.788l5.494 3.145c-10.938 19.104-31.393 30.973-53.383 30.973" stroke="#33475C" stroke-linecap="round" stroke-linejoin="round"/>
        <path d="M126.21 77.904c0 28.94-23.462 52.4-52.402 52.4s-52.4-23.46-52.4-52.4c0-28.94 23.46-52.401 52.4-52.401 28.94 0 52.401 23.461 52.401 52.4z" stroke="#33475C" stroke-width="5" stroke-linecap="round" stroke-linejoin="round"/>
        <path d="M52.822 45.467s-.217-5 6.742-6.196c6.96-1.197 5.98 2.934 3.696 4.132-2.282 1.196-10.982 9.787-10.438 2.064M105.913 102.122s-8.808 13.848-5.436 13.828c3.371-.019 7.176-.889 5.436-13.828M39.584 38.28c.5.12 6.591 1.649 6.278 4.36-.326 2.828-6.742 10.194-11.2 11.186-4.458.995-9.026 10.672-6.69 17.74 2.33 7.038-1.511 16.54-5.102 18.451-.921-3.893-1.462-7.936-1.462-12.113 0-15.845 7.063-30.015 18.176-39.623M62.39 66.128c3.917-1.521 8.591-6.09 4.35-7.504-4.242-1.412-4.242-6.197 0-6.957 4.241-.762 7.395-7.177 6.416-10.44-.979-3.262 8.047-3.48 12.505-4.35 4.459-.87 2.5-3.154 4.677-4.457 1.996-1.198 9.256.351 10.433.613 12.256 7.383 21.269 19.595 24.304 34.042.564 2.686-.976 6.575-4.18 7.643-3.262 1.088-6.198-7.61-8.702-10.983-2.501-3.37-8.371-3.915-8.48.653-.108 4.569 3.805 8.482-.108 8.59-3.917.11-11.42-12.395-11.636-5.87-.218 6.525 15.114 12.395 15.984 14.244.87 1.85-2.065 6.09-7.003 9.57-4.938 3.479-4.742 14.896-5.392 18.92-.655 4.023-11.636 6.744-15.987 5.98-4.349-.761-.76-6.306.327-8.48 1.088-2.177-1.74-3.155-1.975-8.156-.237-5.002 4.802-13.919.561-11.962-4.24 1.958-12.068 2.719-13.374 1.69-1.305-1.028.216-1.255-7.177-7.018-7.395-5.763.542-14.246 4.457-15.768M54.023 29.398l.102.193s4.256 6.416.768 6.633c-3.45.216-10.422-1.606-10.557-1.642 3.017-2.055 6.263-3.786 9.687-5.184M29.795 106.276c.201-.089 4.102-1.826 6.949-.132 2.92 1.74 5.095 4.46 7.594 4.026 0 0 6.635-4.352 6.09 0-.542 4.348-.542 5.218-6.09 3.913-5.465-1.286-9.548-1.263-10.734-2.594-1.38-1.651-2.637-3.398-3.809-5.213" stroke="#33475C" stroke-width="5" stroke-linecap="round" stroke-linejoin="round"/>
        <path d="M126.21 77.904c0 28.94-23.462 52.4-52.402 52.4s-52.4-23.46-52.4-52.4c0-28.94 23.46-52.401 52.4-52.401 28.94 0 52.401 23.461 52.401 52.4z" stroke="#33475C" stroke-width="5" stroke-linecap="round" stroke-linejoin="round"/>
        <path stroke="#33475C" stroke-width="5" stroke-linecap="round" stroke-linejoin="round" d="M93.969 41.313l-4.841-3.912 7.072-8.749 4.84 3.911zM111.547 55.52l4.84 3.91 7.072-8.75-4.84-3.912z"/>
        <path stroke="#33475C" stroke-width="5" stroke-linecap="round" stroke-linejoin="round" d="M111.38 37.747L82.748 29.81l-3.866 4.784L91.8 41.247l10.134 8.189z"/>
        <path stroke="#33475C" stroke-width="5" stroke-linecap="round" stroke-linejoin="round" d="M111.38 37.747l13.77 26.33-3.866 4.783-9.216-11.234-10.134-8.19zM79.835 56.326l-1.922 2.379 11.922 5.702 4.62-5.717.897-1.11z"/>
        <path stroke="#33475C" stroke-width="5" stroke-linecap="round" stroke-linejoin="round" d="M99.835 72.488l-1.922 2.377-8.079-10.458 4.62-5.716.898-1.11z"/>
        <path d="M102.15 56.566l16.956-20.981c3.334-4.126 4.837-9.827 3.098-11.231-1.738-1.406-6.997 1.259-10.33 5.385L94.917 50.721s-4.44 4.413-5.083 13.686c8.932-2.576 12.315-7.841 12.315-7.841z" stroke="#33475C" stroke-width="5" stroke-linecap="round" stroke-linejoin="round"/>
        <path d="M122.204 24.353c-1.739-1.405-6.998 1.26-10.33 5.387l7.232 5.844c3.333-4.126 4.836-9.825 3.098-11.23zM87.221 31.05l-4.473-1.24-3.866 4.784 3.867 1.99zM118.525 65.496l2.76 3.364 3.864-4.784-2.15-4.114z" stroke="#33475C" stroke-width="5" stroke-linecap="round" stroke-linejoin="round"/>
        <path d="M126.21 77.904c0 28.94-23.462 52.4-52.402 52.4s-52.4-23.46-52.4-52.4c0-28.94 23.46-52.401 52.4-52.401 28.94 0 52.401 23.461 52.401 52.4" fill="#E4F8F6"/>
        <path d="M126.21 77.904c0 28.94-23.462 52.4-52.402 52.4s-52.4-23.46-52.4-52.4c0-28.94 23.46-52.401 52.4-52.401 28.94 0 52.401 23.461 52.401 52.4z" stroke="#33475C" stroke-linecap="round" stroke-linejoin="round"/>
        <path d="M52.822 45.467s-.217-5 6.742-6.196c6.96-1.197 5.98 2.934 3.696 4.132-2.282 1.196-10.982 9.787-10.438 2.064M105.913 102.122s-8.808 13.848-5.436 13.828c3.371-.019 7.176-.889 5.436-13.828M39.584 38.28c.5.12 6.591 1.649 6.278 4.36-.326 2.828-6.742 10.194-11.2 11.186-4.458.995-9.026 10.672-6.69 17.74 2.33 7.038-1.511 16.54-5.102 18.451-.921-3.893-1.462-7.936-1.462-12.113 0-15.845 7.063-30.015 18.176-39.623M62.39 66.128c3.917-1.521 8.591-6.09 4.35-7.504-4.242-1.412-4.242-6.197 0-6.957 4.241-.762 7.395-7.177 6.416-10.44-.979-3.262 8.047-3.48 12.505-4.35 4.459-.87 2.5-3.154 4.677-4.457 1.996-1.198 9.256.351 10.433.613 12.256 7.383 21.269 19.595 24.304 34.042.564 2.686-.976 6.575-4.18 7.643-3.262 1.088-6.198-7.61-8.702-10.983-2.501-3.37-8.371-3.915-8.48.653-.108 4.569 3.805 8.482-.108 8.59-3.917.11-11.42-12.395-11.636-5.87-.218 6.525 15.114 12.395 15.984 14.244.87 1.85-2.065 6.09-7.003 9.57-4.938 3.479-4.742 14.896-5.392 18.92-.655 4.023-11.636 6.744-15.987 5.98-4.349-.761-.76-6.306.327-8.48 1.088-2.177-1.74-3.155-1.975-8.156-.237-5.002 4.802-13.919.561-11.962-4.24 1.958-12.068 2.719-13.374 1.69-1.305-1.028.216-1.255-7.177-7.018-7.395-5.763.542-14.246 4.457-15.768M54.023 29.398l.102.193s4.256 6.416.768 6.633c-3.45.216-10.422-1.606-10.557-1.642 3.017-2.055 6.263-3.786 9.687-5.184M29.795 106.276c.201-.089 4.102-1.826 6.949-.132 2.92 1.74 5.095 4.46 7.594 4.026 0 0 6.635-4.352 6.09 0-.542 4.348-.542 5.218-6.09 3.913-5.465-1.286-9.548-1.263-10.734-2.594-1.38-1.651-2.637-3.398-3.809-5.213" fill="#BBEEE8"/>
        <path d="M126.21 77.904c0 28.94-23.462 52.4-52.402 52.4s-52.4-23.46-52.4-52.4c0-28.94 23.46-52.401 52.4-52.401 28.94 0 52.401 23.461 52.401 52.4z" stroke="#33475C" stroke-linecap="round" stroke-linejoin="round"/>
        <path fill="#CBD6E3" d="M93.969 41.313l-4.841-3.912 7.072-8.749 4.84 3.911z"/>
        <path stroke="#33475C" stroke-linecap="round" stroke-linejoin="round" d="M93.969 41.313l-4.841-3.912 7.072-8.749 4.84 3.911z"/>
        <path fill="#CBD6E3" d="M111.547 55.52l4.84 3.91 7.072-8.75-4.84-3.912z"/>
        <path stroke="#33475C" stroke-linecap="round" stroke-linejoin="round" d="M111.547 55.52l4.84 3.91 7.072-8.75-4.84-3.912z"/>
        <path fill="#F5F8FA" d="M111.38 37.747L82.748 29.81l-3.866 4.784L91.8 41.247l10.134 8.189z"/>
        <path stroke="#33475C" stroke-linecap="round" stroke-linejoin="round" d="M111.38 37.747L82.748 29.81l-3.866 4.784L91.8 41.247l10.134 8.189z"/>
        <path fill="#F5F8FA" d="M111.38 37.747l13.77 26.33-3.866 4.783-9.216-11.234-10.134-8.19z"/>
        <path stroke="#33475C" stroke-linecap="round" stroke-linejoin="round" d="M111.38 37.747l13.77 26.33-3.866 4.783-9.216-11.234-10.134-8.19z"/>
        <path fill="#CBD6E3" d="M79.835 56.326l-1.922 2.379 11.922 5.702 4.62-5.717.897-1.11z"/>
        <path stroke="#33475C" stroke-linecap="round" stroke-linejoin="round" d="M79.835 56.326l-1.922 2.379 11.922 5.702 4.62-5.717.897-1.11z"/>
        <path fill="#CBD6E3" d="M99.835 72.488l-1.922 2.377-8.079-10.458 4.62-5.716.898-1.11z"/>
        <path stroke="#33475C" stroke-linecap="round" stroke-linejoin="round" d="M99.835 72.488l-1.922 2.377-8.079-10.458 4.62-5.716.898-1.11z"/>
        <path d="M102.15 56.566l16.956-20.981c3.334-4.126 4.837-9.827 3.098-11.231-1.738-1.406-6.997 1.259-10.33 5.385L94.917 50.721s-4.44 4.413-5.083 13.686c8.932-2.576 12.315-7.841 12.315-7.841" fill="#F5F8FA"/>
        <path d="M102.15 56.566l16.956-20.981c3.334-4.126 4.837-9.827 3.098-11.231-1.738-1.406-6.997 1.259-10.33 5.385L94.917 50.721s-4.44 4.413-5.083 13.686c8.932-2.576 12.315-7.841 12.315-7.841z" stroke="#33475C" stroke-linecap="round" stroke-linejoin="round"/>
        <path d="M122.204 24.353c-1.739-1.405-6.998 1.26-10.33 5.387l7.232 5.844c3.333-4.126 4.836-9.825 3.098-11.23" fill="#CBD6E3"/>
        <path d="M122.204 24.353c-1.739-1.405-6.998 1.26-10.33 5.387l7.232 5.844c3.333-4.126 4.836-9.825 3.098-11.23z" stroke="#33475C" stroke-linecap="round" stroke-linejoin="round"/>
        <path fill="#CBD6E3" d="M87.221 31.05l-4.473-1.24-3.866 4.784 3.867 1.99z"/>
        <path stroke="#33475C" stroke-linecap="round" stroke-linejoin="round" d="M87.221 31.05l-4.473-1.24-3.866 4.784 3.867 1.99z"/>
        <path fill="#CBD6E3" d="M118.525 65.496l2.76 3.364 3.864-4.784-2.15-4.114z"/>
        <path stroke="#33475C" stroke-linecap="round" stroke-linejoin="round" d="M118.525 65.496l2.76 3.364 3.864-4.784-2.15-4.114z"/>
        <path d="M112.904 9.841c-5.095 1.668-6.105 3.022-7.353 9.84-1.249-6.818-2.26-8.172-7.355-9.84 5.095-1.67 6.106-3.023 7.355-9.84 1.248 6.817 2.258 8.17 7.353 9.84" fill="#89D1DE"/>
        <path d="M129.183 40.553c3.151 1.011 3.777 1.83 4.55 5.96.772-4.13 1.398-4.949 4.549-5.96-3.151-1.01-3.777-1.832-4.548-5.96-.774 4.128-1.4 4.95-4.551 5.96" fill="#F55257"/>
        <g transform="translate(133.08 17.386)">
            <mask id="b" fill="#fff">
                <use xlink:href="#a"/>
            </mask>
            <path d="M1.199 8c3.895 1.175 4.665 2.127 5.62 6.925.955-4.798 1.727-5.75 5.622-6.924C8.546 6.826 7.774 5.875 6.82 1.078 5.864 5.875 5.094 6.826 1.2 8.001" fill="#FB0" mask="url(#b)"/>
        </g>
        <path d="M10.734 112.487c-.03-.019-.066-.026-.093-.043-3.46-2.284 1.99-14.668 1.99-14.668l.01-.01c.301-.824.63-1.646.994-2.47 1.973-4.459 5.467-8.335 6.535-13.085.197-.876-.709-1.618-1.517-1.168C13.228 84.063 9.4 91.31 6.565 96.645c-3.01 5.659-6.252 12.35-5.437 18.956.39 3.157 1.423 5.47 2.901 7.125" fill="#FBE1B2"/>
        <path d="M10.734 112.487c-.03-.019-.066-.026-.093-.043-3.46-2.284 1.99-14.668 1.99-14.668l.01-.01c.301-.824.63-1.646.994-2.47 1.973-4.459 5.467-8.335 6.535-13.085.197-.876-.709-1.618-1.517-1.168C13.228 84.063 9.4 91.31 6.565 96.645c-3.01 5.659-6.252 12.35-5.437 18.956.39 3.157 1.423 5.47 2.901 7.125" stroke="#FFF" stroke-width="2" stroke-linecap="round" stroke-linejoin="round"/>
        <path d="M30.829 112.812c-7.697-9.482-12.32-21.555-12.32-34.69 0-9.795 2.6-19.415 7.515-27.813l-5.46-3.2c-5.489 9.371-8.386 20.094-8.386 31.012 0 14.248 4.886 27.367 13.052 37.804l5.599-3.113zM25.23 115.925l5.598-3.113" stroke="#33475C" stroke-width="5" stroke-linecap="round" stroke-linejoin="round"/>
        <path d="M30.829 112.812c-7.697-9.482-12.32-21.555-12.32-34.69 0-9.795 2.6-19.415 7.515-27.813l-5.46-3.2c-5.489 9.371-8.386 20.094-8.386 31.012 0 14.248 4.886 27.367 13.052 37.804l5.599-3.113z" fill="#F6C364"/>
        <path d="M30.829 112.812c-7.697-9.482-12.32-21.555-12.32-34.69 0-9.795 2.6-19.415 7.515-27.813l-5.46-3.2c-5.489 9.371-8.386 20.094-8.386 31.012 0 14.248 4.886 27.367 13.052 37.804l5.599-3.113z" stroke="#33475C" stroke-linecap="round" stroke-linejoin="round"/>
        <path d="M25.23 115.925l5.598-3.113" fill="#F6C364"/>
        <path d="M25.23 115.925l5.598-3.113" stroke="#33475C" stroke-linecap="round" stroke-linejoin="round"/>
        <path d="M4.03 122.726c6.63 7.418 22.331 1.43 30.257-2.688 2.813-1.461 5.549-3.045 8.255-4.677 13.164-7.023 30.654-17.964 45.852-32.865v-.017c2.508-2.346 4.852-4.874 6.957-7.702.973-1.31 1.593-2 2.429-3.38l-6.196-9.425-10.614-3.496c.734-1.249-1.99 2.603-2.138 2.804-2.976 4.133-6.838 7.497-10.352 11.14-8.67 8.982-18.026 16.743-28.29 23.871-5.043 3.505-10.237 6.784-15.367 10.16-2.528 1.664-10.824 7.975-14.089 6.036" fill="#FBE1B2"/>
        <path d="M4.03 122.726c6.63 7.418 22.331 1.43 30.257-2.688 2.813-1.461 5.549-3.045 8.255-4.677 13.164-7.023 30.654-17.964 45.852-32.865v-.017c2.508-2.346 4.852-4.874 6.957-7.702.973-1.31 1.593-2 2.429-3.38l-6.196-9.425-10.614-3.496c.734-1.249-1.99 2.603-2.138 2.804-2.976 4.133-6.838 7.497-10.352 11.14-8.67 8.982-18.026 16.743-28.29 23.871-5.043 3.505-10.237 6.784-15.367 10.16-2.528 1.664-10.824 7.975-14.089 6.036" stroke="#FFF" stroke-width="2" stroke-linecap="round" stroke-linejoin="round"/>
        <path fill="#F5F8FA" d="M91.8 41.246l6.518 5.267 8.179-10.121-19.275-5.343-4.474 5.535z"/>
        <path stroke="#33475C" stroke-linecap="round" stroke-linejoin="round" d="M91.8 41.246l6.518 5.267 8.179-10.121-19.275-5.343-4.474 5.535z"/>
        <path fill="#CBD6E3" d="M79.835 56.326l-1.922 2.379 11.922 5.702 4.62-5.717.897-1.11z"/>
        <path stroke="#33475C" stroke-linecap="round" stroke-linejoin="round" d="M79.835 56.326l-1.922 2.379 11.922 5.702 4.62-5.717.897-1.11z"/>
        <path fill="#CBD6E3" d="M99.835 72.488l-1.922 2.377-8.079-10.458 4.62-5.716.898-1.11z"/>
        <path stroke="#33475C" stroke-linecap="round" stroke-linejoin="round" d="M99.835 72.488l-1.922 2.377-8.079-10.458 4.62-5.716.898-1.11z"/>
        <path fill="#F5F8FA" d="M118.525 65.496l4.472-5.534-9.269-17.725-8.177 10.122 6.516 5.266z"/>
        <path stroke="#33475C" stroke-linecap="round" stroke-linejoin="round" d="M118.525 65.496l4.472-5.534-9.269-17.725-8.177 10.122 6.516 5.266z"/>
        <path d="M102.15 56.566l16.956-20.981c3.334-4.126 4.837-9.827 3.098-11.231-1.738-1.406-6.997 1.259-10.33 5.385L94.917 50.721s-4.44 4.413-5.083 13.686c8.932-2.576 12.315-7.841 12.315-7.841" fill="#F5F8FA"/>
        <path d="M102.15 56.566l16.956-20.981c3.334-4.126 4.837-9.827 3.098-11.231-1.738-1.406-6.997 1.259-10.33 5.385L94.917 50.721s-4.44 4.413-5.083 13.686c8.932-2.576 12.315-7.841 12.315-7.841z" stroke="#33475C" stroke-linecap="round" stroke-linejoin="round"/>
    </g>
</svg>